<svg width="84" height="16" viewBox="0 0 84 16" fill="none" xmlns="http://www.w3.org/2000/svg">
<g id="My Account">
<path id="Vector" d="M83.8906 3.54688V4.92188H79.125V3.54688H83.8906ZM80.5 1.47656H82.3828V9.66406C82.3828 9.92448 82.4193 10.125 82.4922 10.2656C82.5703 10.401 82.6771 10.4922 82.8125 10.5391C82.9479 10.5859 83.1068 10.6094 83.2891 10.6094C83.4193 10.6094 83.5443 10.6016 83.6641 10.5859C83.7839 10.5703 83.8802 10.5547 83.9531 10.5391L83.9609 11.9766C83.8047 12.0234 83.6224 12.0651 83.4141 12.1016C83.2109 12.138 82.9766 12.1562 82.7109 12.1562C82.2786 12.1562 81.8958 12.0807 81.5625 11.9297C81.2292 11.7734 80.9688 11.5208 80.7812 11.1719C80.5938 10.8229 80.5 10.3594 80.5 9.78125V1.47656Z" fill="#3A3A3A"/>
<path id="Vector_2" d="M72.9766 5.35156V12H71.0938V3.54688H72.8672L72.9766 5.35156ZM72.6406 7.46094L72.0312 7.45312C72.0365 6.85417 72.1198 6.30469 72.2812 5.80469C72.4479 5.30469 72.6771 4.875 72.9688 4.51562C73.2656 4.15625 73.6198 3.88021 74.0312 3.6875C74.4427 3.48958 74.901 3.39062 75.4062 3.39062C75.8125 3.39062 76.1797 3.44792 76.5078 3.5625C76.8411 3.67188 77.125 3.85156 77.3594 4.10156C77.599 4.35156 77.7812 4.67708 77.9062 5.07812C78.0312 5.47396 78.0938 5.96094 78.0938 6.53906V12H76.2031V6.53125C76.2031 6.125 76.1432 5.80469 76.0234 5.57031C75.9089 5.33073 75.7396 5.16146 75.5156 5.0625C75.2969 4.95833 75.0234 4.90625 74.6953 4.90625C74.3724 4.90625 74.0833 4.97396 73.8281 5.10938C73.5729 5.24479 73.3568 5.42969 73.1797 5.66406C73.0078 5.89844 72.875 6.16927 72.7812 6.47656C72.6875 6.78385 72.6406 7.11198 72.6406 7.46094Z" fill="#3A3A3A"/>
<path id="Vector_3" d="M67.2891 10.0078V3.54688H69.1797V12H67.3984L67.2891 10.0078ZM67.5547 8.25L68.1875 8.23438C68.1875 8.80208 68.125 9.32552 68 9.80469C67.875 10.2786 67.6823 10.6927 67.4219 11.0469C67.1615 11.3958 66.8281 11.6693 66.4219 11.8672C66.0156 12.0599 65.5286 12.1562 64.9609 12.1562C64.5495 12.1562 64.1719 12.0964 63.8281 11.9766C63.4844 11.8568 63.1875 11.6719 62.9375 11.4219C62.6927 11.1719 62.5026 10.8464 62.3672 10.4453C62.2318 10.0443 62.1641 9.5651 62.1641 9.00781V3.54688H64.0469V9.02344C64.0469 9.33073 64.0833 9.58854 64.1562 9.79688C64.2292 10 64.3281 10.1641 64.4531 10.2891C64.5781 10.4141 64.724 10.5026 64.8906 10.5547C65.0573 10.6068 65.2344 10.6328 65.4219 10.6328C65.9583 10.6328 66.3802 10.5286 66.6875 10.3203C67 10.1068 67.2214 9.82031 67.3516 9.46094C67.487 9.10156 67.5547 8.69792 67.5547 8.25Z" fill="#3A3A3A"/>
<path id="Vector_4" d="M52.7656 7.86719V7.6875C52.7656 7.07812 52.8542 6.51302 53.0312 5.99219C53.2083 5.46615 53.4635 5.01042 53.7969 4.625C54.1354 4.23438 54.5469 3.93229 55.0312 3.71875C55.5208 3.5 56.0729 3.39062 56.6875 3.39062C57.3073 3.39062 57.8594 3.5 58.3438 3.71875C58.8333 3.93229 59.2474 4.23438 59.5859 4.625C59.9245 5.01042 60.1823 5.46615 60.3594 5.99219C60.5365 6.51302 60.625 7.07812 60.625 7.6875V7.86719C60.625 8.47656 60.5365 9.04167 60.3594 9.5625C60.1823 10.0833 59.9245 10.5391 59.5859 10.9297C59.2474 11.3151 58.8359 11.6172 58.3516 11.8359C57.8672 12.0495 57.3177 12.1562 56.7031 12.1562C56.0833 12.1562 55.5286 12.0495 55.0391 11.8359C54.5547 11.6172 54.1432 11.3151 53.8047 10.9297C53.4661 10.5391 53.2083 10.0833 53.0312 9.5625C52.8542 9.04167 52.7656 8.47656 52.7656 7.86719ZM54.6484 7.6875V7.86719C54.6484 8.2474 54.6875 8.60677 54.7656 8.94531C54.8438 9.28385 54.9661 9.58073 55.1328 9.83594C55.2995 10.0911 55.513 10.2917 55.7734 10.4375C56.0339 10.5833 56.3438 10.6562 56.7031 10.6562C57.0521 10.6562 57.3542 10.5833 57.6094 10.4375C57.8698 10.2917 58.0833 10.0911 58.25 9.83594C58.4167 9.58073 58.5391 9.28385 58.6172 8.94531C58.7005 8.60677 58.7422 8.2474 58.7422 7.86719V7.6875C58.7422 7.3125 58.7005 6.95833 58.6172 6.625C58.5391 6.28646 58.4141 5.98698 58.2422 5.72656C58.0755 5.46615 57.862 5.26302 57.6016 5.11719C57.3464 4.96615 57.0417 4.89062 56.6875 4.89062C56.3333 4.89062 56.026 4.96615 55.7656 5.11719C55.5104 5.26302 55.2995 5.46615 55.1328 5.72656C54.9661 5.98698 54.8438 6.28646 54.7656 6.625C54.6875 6.95833 54.6484 7.3125 54.6484 7.6875Z" fill="#3A3A3A"/>
<path id="Vector_5" d="M48.2188 10.6562C48.526 10.6562 48.8021 10.5964 49.0469 10.4766C49.2969 10.3516 49.4974 10.1797 49.6484 9.96094C49.8047 9.74219 49.8906 9.48958 49.9062 9.20312H51.6797C51.6693 9.75 51.5078 10.2474 51.1953 10.6953C50.8828 11.1432 50.4688 11.5 49.9531 11.7656C49.4375 12.026 48.8672 12.1562 48.2422 12.1562C47.5964 12.1562 47.0339 12.0469 46.5547 11.8281C46.0755 11.6042 45.6771 11.2969 45.3594 10.9062C45.0417 10.5156 44.8021 10.0651 44.6406 9.55469C44.4844 9.04427 44.4062 8.4974 44.4062 7.91406V7.64062C44.4062 7.05729 44.4844 6.51042 44.6406 6C44.8021 5.48438 45.0417 5.03125 45.3594 4.64062C45.6771 4.25 46.0755 3.94531 46.5547 3.72656C47.0339 3.5026 47.5938 3.39062 48.2344 3.39062C48.9115 3.39062 49.5052 3.52604 50.0156 3.79688C50.526 4.0625 50.9271 4.4349 51.2188 4.91406C51.5156 5.38802 51.6693 5.9401 51.6797 6.57031H49.9062C49.8906 6.25781 49.8125 5.97656 49.6719 5.72656C49.5365 5.47135 49.3438 5.26823 49.0938 5.11719C48.849 4.96615 48.5547 4.89062 48.2109 4.89062C47.8307 4.89062 47.5156 4.96875 47.2656 5.125C47.0156 5.27604 46.8203 5.48438 46.6797 5.75C46.5391 6.01042 46.4375 6.30469 46.375 6.63281C46.3177 6.95573 46.2891 7.29167 46.2891 7.64062V7.91406C46.2891 8.26302 46.3177 8.60156 46.375 8.92969C46.4323 9.25781 46.5312 9.55208 46.6719 9.8125C46.8177 10.0677 47.0156 10.2734 47.2656 10.4297C47.5156 10.5807 47.8333 10.6562 48.2188 10.6562Z" fill="#3A3A3A"/>
<path id="Vector_6" d="M39.8594 10.6562C40.1667 10.6562 40.4427 10.5964 40.6875 10.4766C40.9375 10.3516 41.138 10.1797 41.2891 9.96094C41.4453 9.74219 41.5312 9.48958 41.5469 9.20312H43.3203C43.3099 9.75 43.1484 10.2474 42.8359 10.6953C42.5234 11.1432 42.1094 11.5 41.5938 11.7656C41.0781 12.026 40.5078 12.1562 39.8828 12.1562C39.237 12.1562 38.6745 12.0469 38.1953 11.8281C37.7161 11.6042 37.3177 11.2969 37 10.9062C36.6823 10.5156 36.4427 10.0651 36.2812 9.55469C36.125 9.04427 36.0469 8.4974 36.0469 7.91406V7.64062C36.0469 7.05729 36.125 6.51042 36.2812 6C36.4427 5.48438 36.6823 5.03125 37 4.64062C37.3177 4.25 37.7161 3.94531 38.1953 3.72656C38.6745 3.5026 39.2344 3.39062 39.875 3.39062C40.5521 3.39062 41.1458 3.52604 41.6562 3.79688C42.1667 4.0625 42.5677 4.4349 42.8594 4.91406C43.1562 5.38802 43.3099 5.9401 43.3203 6.57031H41.5469C41.5312 6.25781 41.4531 5.97656 41.3125 5.72656C41.1771 5.47135 40.9844 5.26823 40.7344 5.11719C40.4896 4.96615 40.1953 4.89062 39.8516 4.89062C39.4714 4.89062 39.1562 4.96875 38.9062 5.125C38.6562 5.27604 38.4609 5.48438 38.3203 5.75C38.1797 6.01042 38.0781 6.30469 38.0156 6.63281C37.9583 6.95573 37.9297 7.29167 37.9297 7.64062V7.91406C37.9297 8.26302 37.9583 8.60156 38.0156 8.92969C38.0729 9.25781 38.1719 9.55208 38.3125 9.8125C38.4583 10.0677 38.6562 10.2734 38.9062 10.4297C39.1562 10.5807 39.474 10.6562 39.8594 10.6562Z" fill="#3A3A3A"/>
<path id="Vector_7" d="M30.4141 2.14062L27.0156 12H24.9609L29.2422 0.625H30.5547L30.4141 2.14062ZM33.2578 12L29.8516 2.14062L29.7031 0.625H31.0234L35.3203 12H33.2578ZM33.0938 7.78125V9.33594H26.9062V7.78125H33.0938Z" fill="#3A3A3A"/>
<path id="Vector_8" d="M16.4219 11.0781L18.7188 3.54688H20.7344L17.3438 13.2891C17.2656 13.4974 17.1641 13.724 17.0391 13.9688C16.9141 14.2135 16.75 14.4453 16.5469 14.6641C16.349 14.888 16.1016 15.0677 15.8047 15.2031C15.5078 15.3438 15.1484 15.4141 14.7266 15.4141C14.5599 15.4141 14.3984 15.3984 14.2422 15.3672C14.0911 15.3411 13.9479 15.3125 13.8125 15.2812L13.8047 13.8438C13.8568 13.849 13.9193 13.8542 13.9922 13.8594C14.0703 13.8646 14.1328 13.8672 14.1797 13.8672C14.4922 13.8672 14.7526 13.8281 14.9609 13.75C15.1693 13.6771 15.3385 13.5573 15.4688 13.3906C15.6042 13.224 15.7188 13 15.8125 12.7188L16.4219 11.0781ZM15.125 3.54688L17.1328 9.875L17.4688 11.8594L16.1641 12.1953L13.0938 3.54688H15.125Z" fill="#3A3A3A"/>
<path id="Vector_9" d="M0.953125 0.625H2.70312L5.99219 9.39844L9.27344 0.625H11.0234L6.67969 12H5.28906L0.953125 0.625ZM0.15625 0.625H1.82031L2.10938 8.21875V12H0.15625V0.625ZM10.1562 0.625H11.8281V12H9.86719V8.21875L10.1562 0.625Z" fill="#3A3A3A"/>
</g>
</svg>
