<svg width="28" height="23" viewBox="0 0 28 23" fill="none" xmlns="http://www.w3.org/2000/svg">
<g id="Rectangle 29 (Stroke)" filter="url(#filter0_d_249_187)">
<path fill-rule="evenodd" clip-rule="evenodd" d="M21 0.441176H7C5.61929 0.441176 4.5 1.42878 4.5 2.64706V12.3529C4.5 13.5712 5.61929 14.5588 7 14.5588H21C22.3807 14.5588 23.5 13.5712 23.5 12.3529V2.64706C23.5 1.42878 22.3807 0.441176 21 0.441176ZM7 0C5.34315 0 4 1.18513 4 2.64706V12.3529C4 13.8149 5.34315 15 7 15H21C22.6569 15 24 13.8149 24 12.3529V2.64706C24 1.18513 22.6569 0 21 0H7Z" fill="#616161"/>
</g>
<defs>
<filter id="filter0_d_249_187" x="0" y="0" width="28" height="23" filterUnits="userSpaceOnUse" color-interpolation-filters="sRGB">
<feFlood flood-opacity="0" result="BackgroundImageFix"/>
<feColorMatrix in="SourceAlpha" type="matrix" values="0 0 0 0 0 0 0 0 0 0 0 0 0 0 0 0 0 0 127 0" result="hardAlpha"/>
<feOffset dy="4"/>
<feGaussianBlur stdDeviation="2"/>
<feComposite in2="hardAlpha" operator="out"/>
<feColorMatrix type="matrix" values="0 0 0 0 0 0 0 0 0 0 0 0 0 0 0 0 0 0 0.25 0"/>
<feBlend mode="normal" in2="BackgroundImageFix" result="effect1_dropShadow_249_187"/>
<feBlend mode="normal" in="SourceGraphic" in2="effect1_dropShadow_249_187" result="shape"/>
</filter>
</defs>
</svg>
