<svg width="20" height="15" viewBox="0 0 20 15" fill="none" xmlns="http://www.w3.org/2000/svg">
<path id="Rectangle 27 (Stroke)" fill-rule="evenodd" clip-rule="evenodd" d="M17 0.441176H3C1.61929 0.441176 0.5 1.42878 0.5 2.64706V12.3529C0.5 13.5712 1.61929 14.5588 3 14.5588H17C18.3807 14.5588 19.5 13.5712 19.5 12.3529V2.64706C19.5 1.42878 18.3807 0.441176 17 0.441176ZM3 0C1.34315 0 0 1.18513 0 2.64706V12.3529C0 13.8149 1.34315 15 3 15H17C18.6569 15 20 13.8149 20 12.3529V2.64706C20 1.18513 18.6569 0 17 0H3Z" fill="#757575"/>
</svg>
