<svg width="28" height="24" viewBox="0 0 28 24" fill="none" xmlns="http://www.w3.org/2000/svg">
<g id="Rectangle 28 (Stroke)" filter="url(#filter0_d_203_403)">
<path fill-rule="evenodd" clip-rule="evenodd" d="M21 0.470588H7C5.61929 0.470588 4.5 1.52404 4.5 2.82353V13.1765C4.5 14.476 5.61929 15.5294 7 15.5294H21C22.3807 15.5294 23.5 14.476 23.5 13.1765V2.82353C23.5 1.52404 22.3807 0.470588 21 0.470588ZM7 0C5.34315 0 4 1.26414 4 2.82353V13.1765C4 14.7359 5.34315 16 7 16H21C22.6569 16 24 14.7359 24 13.1765V2.82353C24 1.26414 22.6569 0 21 0H7Z" fill="#616161"/>
</g>
<defs>
<filter id="filter0_d_203_403" x="0" y="0" width="28" height="24" filterUnits="userSpaceOnUse" color-interpolation-filters="sRGB">
<feFlood flood-opacity="0" result="BackgroundImageFix"/>
<feColorMatrix in="SourceAlpha" type="matrix" values="0 0 0 0 0 0 0 0 0 0 0 0 0 0 0 0 0 0 127 0" result="hardAlpha"/>
<feOffset dy="4"/>
<feGaussianBlur stdDeviation="2"/>
<feComposite in2="hardAlpha" operator="out"/>
<feColorMatrix type="matrix" values="0 0 0 0 0 0 0 0 0 0 0 0 0 0 0 0 0 0 0.25 0"/>
<feBlend mode="normal" in2="BackgroundImageFix" result="effect1_dropShadow_203_403"/>
<feBlend mode="normal" in="SourceGraphic" in2="effect1_dropShadow_203_403" result="shape"/>
</filter>
</defs>
</svg>
